<?xml version="1.0" encoding="UTF-8"?>
<svg xmlns="http://www.w3.org/2000/svg" id="Layer_1" data-name="Layer 1" viewBox="0 0 1586.09 413.91">
  <defs>
    <style>
      .cls-1, .cls-2 {
        stroke-width: 0px;
      }

      .cls-2 {
        fill: #72bf44;
      }
    </style>
  </defs>
  <g>
    <path class="cls-2" d="m1343.48,184.4c.99-6.57,1.56-12.8,1.64-18.6-11.05-8.84-24.62-14.86-38.59-18.48-2.13,4.91-3.45,10.55-3.06,17.3,0,1.33.08,2.65.2,3.95,14.08,3.02,27.57,8.18,39.8,15.83Z"></path>
    <path class="cls-2" d="m1342.46,138.49c-6.42-5.32-14.32-9.21-22.5-11.05-3.55,4.9-8.48,10.29-12.06,17.15,13.17,2.74,25.81,7.52,37.14,14.85-.27-7.78-1.22-14.76-2.59-20.94Z"></path>
    <path class="cls-2" d="m1338.81,205.35c1.52-5.26,2.83-10.39,3.77-15.27-11.34-8.38-24.64-14.42-38.42-18.3,3.08,17.19,17,30.69,34.65,33.57Z"></path>
    <path class="cls-2" d="m1328.93,106.12c-.94,4.32-3.07,11.81-7.2,18.57,6.62,1.04,12.96,3.18,18.81,6.38-3.87-13.01-9.15-21.46-11.61-24.95Z"></path>
    <path class="cls-2" d="m1318.78,226.13c.74-12.05-4.75-23.79-15-30.67-1.37,8.92-1.64,18.04-.61,26.87,5.7.4,10.66,1.64,15.6,3.8Z"></path>
    <path class="cls-2" d="m1261.08,191.92c-5.34.09-10.32-.82-13.52-1.61,2.04,4.29,5.75,10.58,12.04,16.48-.15-5.05.44-10.01,1.48-14.87Z"></path>
    <path class="cls-2" d="m1297.89,221.99c-.34-9.62.74-19.09,2.97-28.33-.25-.13-.46-.31-.71-.44-5.46-3.15-10.68-4.16-15.59-4.24-1.8,10.35-2.05,21.06.03,31.12,4.02,1,8.47,1.63,13.3,1.89Z"></path>
    <path class="cls-2" d="m1279.12,218.51c-1.03-9.92-.15-19.83,2.11-29.48-5.71.39-10.91,1.86-15.39,2.53-.42.06-.85.07-1.27.12-.84,6.66-.75,13.47.76,19.72,3.88,2.74,8.4,5.23,13.79,7.11Z"></path>
    <path class="cls-2" d="m1370.5,226.57c5.39-1.35,10.63-2.28,15.59-2.61,1.04-8.87.77-18.03-.6-26.98-9.93,6.67-15.35,17.92-14.99,29.59Z"></path>
    <path class="cls-2" d="m1404.69,221.63c2.07-10.07,1.84-20.77.03-31.12-4.91.07-10.13,1.09-15.59,4.24-.25.13-.46.3-.71.43,2.23,9.24,3.31,18.71,2.98,28.33,4.82-.26,9.27-.89,13.28-1.89Z"></path>
    <path class="cls-2" d="m1447.81,219.1c.95-10.13-.49-19.33-1.57-24.32-5.73,11.36-21.42,33.43-57.05,34.31-7.99.2-16.89,2.05-26.16,5.3-1.31.46-15.4,6.45-18.52,8.56.78-1.45,7.1-14.19,11.59-38.3,15.14-3.82,26.37-15.96,30.48-31.19-7.82,3.97-15.31,8.52-22.12,13.84-1.18.93-2.89.73-3.82-.44-.93-1.17-.73-2.87.44-3.8,8.31-5.62,17.23-10.06,26.4-13.74.27-1.55.59-3.1.71-4.7.66-8.4-.52-15.69-2.89-22.05-8.29,4.65-16.11,10.31-22.87,16.81-1.07,1.05-2.79,1.04-3.84-.02-1.12-1.12-1.02-3,.21-3.99,7.77-6.35,16.25-11.51,25.26-15.65-3.68-8.16-9.34-14.65-15.73-19.74-.06.07-.05.16-.14.22-4.77,3.62-8.83,8.19-11.84,13.18-.77,1.28-2.45,1.7-3.73.93-1.29-.77-1.71-2.44-.93-3.72,3.98-5.06,8.93-9.17,14.38-12.34-12.03-8.8-25.72-13.09-32.35-14.76,36.96,51.96,2.51,130.59-3.16,137.48-2.96-3.13-7.06-6.22-11.74-8.88-5.92-2.99-11.66-4.33-18.75-4.51-35.63-.89-51.32-22.97-57.04-34.32-1.08,5-2.53,14.32-1.57,24.45,3.29-1.73,6.72-3.19,10.44-4.05,1.46-.35,2.93.56,3.28,2.02.35,1.46-.56,2.92-2.02,3.27-3.77.27-7.6.96-11.26,2.25.96,6.31,3,12.76,6.72,18.61,5.96-4.57,12.38-8.48,19.34-11.61,1.37-.62,2.98-.01,3.6,1.35.62,1.36,0,2.97-1.36,3.58-6.83,2.32-13.51,5.54-19.72,9.43,4.09,5.37,9.81,10.05,17.8,13.33,6.84-6.34,14.26-12.15,22.55-16.86,1.3-.74,2.96-.29,3.71,1.01.79,1.37.21,3.15-1.23,3.8-7.58,3.47-14.74,8.04-21.5,13.17,16.23,5.03,33.81-.45,42.38-15.43,5.31,3.82,9.1,9.39,6.25,17.29-1.65,4.58-5.94,9.37-16.4,9.37-6.1,0-19.02-3.76-31.22,3.69-8.09,4.94-8.02,8.35-8.02,8.35,0,0,12.79-5.77,22.84-4.22,10.13,1.55,15.24,4.79,26.69.97-6.22,7.15-9.42,27.34,7.29,33.41-8.6-9.87-.39-26.4,5.01-27.95,5.76,14.41,30.69,15.55,44.32,9.71,17.78-7.61,35.06-4.99,43.59-1.22-9.77-14.74-32.54-11.74-41.06-9.37-8.53,2.36-30.22,6.76-33.81-4.33-5.19-16.04,16.49-28.81,35.3-34.41,8.52,15.17,26.21,20.73,42.53,15.67-6.76-5.13-13.92-9.7-21.5-13.17-1.37-.62-1.97-2.23-1.35-3.59.62-1.36,2.23-1.96,3.6-1.34,8.38,4.69,15.87,10.58,22.76,16.97,7.98-3.28,13.65-7.99,17.74-13.37-6.11-3.82-12.67-7.01-19.39-9.29-1.43-.47-2.2-2-1.74-3.42.49-1.52,2.25-2.29,3.7-1.62,1.56.27,12.82,6.6,19.39,11.52,3.64-5.77,5.67-12.11,6.64-18.34-3.51-1.24-7.14-2.15-10.76-2.36-1.5-.09-2.65-1.37-2.56-2.87.77-4.8,8.47-1.47,13.79,1.43Z"></path>
    <path class="cls-2" d="m1410.17,220.04c5.41-1.89,9.95-4.39,13.85-7.15,1.42-6.28,1.5-13.05.64-19.69-.41-.05-.81-.05-1.22-.11-4.47-.67-9.67-2.14-15.39-2.53,2.27,9.66,3.14,19.56,2.12,29.48Z"></path>
    <path class="cls-2" d="m1441.72,191.84c-3.21.79-8.22,1.71-13.59,1.61,1.07,4.85,1.67,9.8,1.56,14.85,6.29-5.89,9.99-12.17,12.03-16.46Z"></path>
  </g>
  <g>
    <g>
      <path class="cls-1" d="m137.97,211.39v-61.22h13.46v24.57h28.49v-24.57h13.45v61.22h-13.45v-25.44h-28.49v25.44h-13.46Z"></path>
      <path class="cls-1" d="m242.78,212.35c-6.02,0-11.31-1.31-15.85-3.95s-8.08-6.31-10.59-11.03c-2.52-4.71-3.78-10.25-3.78-16.63s1.26-11.91,3.78-16.63c2.52-4.71,6.03-8.38,10.55-10.98,4.52-2.61,9.81-3.91,15.89-3.91s11.38,1.3,15.93,3.91c4.54,2.6,8.08,6.27,10.6,10.98,2.52,4.72,3.77,10.23,3.77,16.54s-1.26,11.93-3.77,16.67c-2.52,4.75-6.06,8.44-10.6,11.07s-9.85,3.95-15.93,3.95Zm0-11.46c5.09,0,9.07-1.78,11.94-5.34,2.87-3.55,4.3-8.49,4.3-14.8s-1.41-11.3-4.25-14.8c-2.83-3.5-6.83-5.25-11.98-5.25s-8.99,1.75-11.86,5.25c-2.86,3.51-4.3,8.44-4.3,14.8s1.43,11.25,4.3,14.8c2.87,3.56,6.82,5.34,11.86,5.34Z"></path>
      <path class="cls-1" d="m321.89,212.35c-6.6,0-12.25-1.3-16.93-3.91-4.69-2.6-8.3-6.26-10.81-10.98s-3.78-10.29-3.78-16.72,1.26-11.91,3.78-16.63c2.52-4.71,6.12-8.38,10.81-10.98,4.69-2.61,10.33-3.91,16.93-3.91,4.05,0,7.93.64,11.64,1.91,3.7,1.27,6.74,3.01,9.12,5.21l-4.17,10.68c-2.61-2.03-5.22-3.52-7.86-4.47s-5.4-1.43-8.3-1.43c-5.84,0-10.26,1.7-13.24,5.08s-4.47,8.24-4.47,14.54,1.48,11.17,4.47,14.59c2.98,3.41,7.4,5.12,13.24,5.12,2.9,0,5.66-.48,8.3-1.43s5.25-2.45,7.86-4.47l4.17,10.68c-2.37,2.14-5.41,3.86-9.12,5.17-3.71,1.3-7.59,1.95-11.64,1.95Z"></path>
      <path class="cls-1" d="m360.18,211.39v-61.22h13.46v24.57h28.49v-24.57h13.45v61.22h-13.45v-25.44h-28.49v25.44h-13.46Z"></path>
      <path class="cls-1" d="m458.48,212.35c-4.81,0-9.34-.61-13.59-1.82-4.25-1.22-7.8-2.86-10.64-4.95l3.91-10.59c2.72,1.91,5.83,3.41,9.34,4.52,3.5,1.1,7.16,1.65,10.98,1.65,4.17,0,7.17-.65,8.99-1.95,1.82-1.31,2.73-2.94,2.73-4.91,0-1.67-.64-3.01-1.91-3.99-1.28-.98-3.51-1.82-6.69-2.52l-9.81-2.08c-10.94-2.32-16.42-7.99-16.42-17.02,0-3.87,1.05-7.28,3.13-10.2,2.08-2.92,4.99-5.19,8.73-6.81,3.73-1.62,8.06-2.43,12.98-2.43,4.23,0,8.19.61,11.89,1.82,3.7,1.22,6.78,2.93,9.21,5.12l-3.91,9.9c-4.75-3.77-10.51-5.65-17.29-5.65-3.65,0-6.47.71-8.47,2.13-1.99,1.42-3,3.26-3,5.51,0,1.68.61,3.04,1.83,4.08,1.22,1.04,3.33,1.88,6.34,2.52l9.81,2.08c11.23,2.43,16.85,7.94,16.85,16.5,0,3.82-1.03,7.17-3.08,10.03-2.06,2.87-4.95,5.1-8.68,6.69-3.73,1.59-8.15,2.39-13.24,2.39Z"></path>
      <path class="cls-1" d="m530.64,212.35c-6.6,0-12.25-1.3-16.93-3.91-4.69-2.6-8.3-6.26-10.81-10.98s-3.78-10.29-3.78-16.72,1.26-11.91,3.78-16.63c2.52-4.71,6.12-8.38,10.81-10.98,4.69-2.61,10.33-3.91,16.93-3.91,4.05,0,7.93.64,11.64,1.91,3.7,1.27,6.74,3.01,9.12,5.21l-4.17,10.68c-2.61-2.03-5.22-3.52-7.86-4.47s-5.4-1.43-8.3-1.43c-5.84,0-10.26,1.7-13.24,5.08-2.98,3.38-4.47,8.24-4.47,14.54s1.48,11.17,4.47,14.59c2.98,3.41,7.4,5.12,13.24,5.12,2.9,0,5.66-.48,8.3-1.43s5.25-2.45,7.86-4.47l4.17,10.68c-2.37,2.14-5.41,3.86-9.12,5.17-3.71,1.3-7.59,1.95-11.64,1.95Z"></path>
      <path class="cls-1" d="m568.93,211.39v-61.22h13.46v24.57h28.49v-24.57h13.45v61.22h-13.45v-25.44h-28.49v25.44h-13.46Z"></path>
      <path class="cls-1" d="m671.57,212.35c-8.68,0-15.29-2.23-19.84-6.69-4.55-4.46-6.82-11.09-6.82-19.89v-35.6h13.46v35.69c0,4.98,1.12,8.73,3.38,11.25,2.25,2.52,5.53,3.77,9.81,3.77,8.74,0,13.12-5,13.12-15.02v-35.69h13.29v35.6c0,8.8-2.23,15.43-6.69,19.89-4.46,4.46-11.03,6.69-19.72,6.69Z"></path>
      <path class="cls-1" d="m718.55,211.39v-61.22h13.46v49.84h28.31v11.38h-41.77Z"></path>
      <path class="cls-1" d="m776.99,211.39v-61.22h41.95v10.51h-29.09v14.32h27.18v10.59h-27.18v15.29h29.09v10.51h-41.95Z"></path>
      <path class="cls-1" d="m870.51,211.39v-61.22h36.82v4.6h-31.52v23.36h29.79v4.6h-29.79v28.66h-5.3Z"></path>
      <path class="cls-1" d="m949.7,212.08c-7.82,0-13.74-2.1-17.8-6.3-4.05-4.19-6.08-10.29-6.08-18.27v-37.34h5.3v36.9c0,13.43,6.19,20.15,18.58,20.15s18.59-6.71,18.59-20.15v-36.9h5.29v37.34c0,7.99-2.02,14.08-6.08,18.27-4.05,4.2-9.99,6.3-17.8,6.3Z"></path>
      <path class="cls-1" d="m997.81,211.39v-61.22h5.3v56.44h31.96v4.78h-37.26Z"></path>
      <path class="cls-1" d="m1052.95,211.39v-61.22h19.72c9.72,0,17.24,2.61,22.54,7.82,5.29,5.21,7.94,12.79,7.94,22.75s-2.65,17.56-7.94,22.8c-5.3,5.24-12.81,7.86-22.54,7.86h-19.72Zm5.3-4.69h13.98c16.79,0,25.19-8.65,25.19-25.96s-8.4-25.87-25.19-25.87h-13.98v51.83Z"></path>
      <path class="cls-1" d="m1118.69,211.39l26.66-61.22h4.78l26.57,61.22h-5.55l-7.04-16.32h-32.82l-6.95,16.32h-5.64Zm28.92-54.62l-14.33,33.69h28.83l-14.33-33.69h-.17Z"></path>
    </g>
    <g>
      <path class="cls-1" d="m447.73,264.7c-3.82,0-6.74-1.01-8.76-3.03-2.02-2.01-3.02-4.97-3.02-8.88v-17.1h4.23v17.02c0,5.55,2.52,8.32,7.55,8.32s7.55-2.77,7.55-8.32v-17.02h4.14v17.1c0,3.9-.99,6.86-2.96,8.88-1.98,2.02-4.89,3.03-8.73,3.03Z"></path>
      <path class="cls-1" d="m467.96,264.33v-28.64h3.22l16.41,21.65v-21.65h3.9v28.64h-3.13l-16.49-21.74v21.74h-3.9Z"></path>
      <path class="cls-1" d="m500.17,264.33v-28.64h4.23v28.64h-4.23Z"></path>
      <path class="cls-1" d="m522.11,264.33l-12.63-28.64h4.51l10.03,23.32,10.03-23.32h4.31l-12.64,28.64h-3.62Z"></path>
      <path class="cls-1" d="m543.52,264.33v-28.64h18.53v3.41h-14.47v8.98h13.61v3.41h-13.61v9.43h14.47v3.41h-18.53Z"></path>
      <path class="cls-1" d="m569.48,264.33v-28.64h11.86c3.09,0,5.47.74,7.15,2.21,1.67,1.48,2.52,3.55,2.52,6.2,0,2.14-.57,3.89-1.7,5.26-1.14,1.36-2.75,2.28-4.83,2.74,1.3.43,2.4,1.48,3.29,3.12l4.96,9.1h-4.64l-4.95-9.14c-.57-1.06-1.22-1.77-1.97-2.13-.74-.37-1.7-.55-2.86-.55h-4.59v11.82h-4.23Zm4.23-14.99h6.95c4.17,0,6.26-1.72,6.26-5.16s-2.09-5.12-6.26-5.12h-6.95v10.28Z"></path>
      <path class="cls-1" d="m608.51,264.7c-2.25,0-4.3-.29-6.17-.88-1.87-.58-3.46-1.4-4.76-2.46l1.34-3.33c1.35,1.03,2.8,1.8,4.35,2.32,1.54.51,3.29.77,5.24.77,2.3,0,4.01-.42,5.1-1.24,1.1-.83,1.65-1.91,1.65-3.24,0-1.08-.4-1.94-1.18-2.58-.78-.64-2.1-1.14-3.94-1.52l-4.35-.9c-2.57-.54-4.49-1.43-5.75-2.68s-1.89-2.93-1.89-5.04c0-1.7.46-3.21,1.36-4.51s2.18-2.31,3.8-3.02c1.62-.72,3.49-1.08,5.6-1.08,1.95,0,3.76.3,5.42.88,1.67.58,3.08,1.43,4.25,2.54l-1.38,3.21c-2.3-2.03-5.08-3.05-8.33-3.05-2.01,0-3.6.45-4.77,1.34-1.18.9-1.77,2.08-1.77,3.58,0,1.14.36,2.04,1.1,2.72.73.68,1.95,1.19,3.65,1.55l4.3.89c2.71.57,4.73,1.44,6.06,2.62,1.33,1.17,1.99,2.77,1.99,4.77,0,1.68-.45,3.14-1.34,4.39s-2.16,2.21-3.78,2.9-3.56,1.04-5.81,1.04Z"></path>
      <path class="cls-1" d="m626.27,264.33v-28.64h4.23v28.64h-4.23Z"></path>
      <path class="cls-1" d="m646.14,264.33v-25.11h-10.15v-3.53h24.49v3.53h-10.15v25.11h-4.18Z"></path>
      <path class="cls-1" d="m673.31,264.33v-13.36l-10.97-15.28h4.88l8.28,11.58,8.29-11.58h4.67l-10.97,15.31v13.33h-4.18Z"></path>
      <path class="cls-1" d="m718.24,264.7c-2.73,0-5.1-.61-7.11-1.81-2-1.21-3.55-2.91-4.65-5.12-1.1-2.21-1.65-4.81-1.65-7.78s.55-5.61,1.65-7.8,2.65-3.89,4.65-5.08c2.01-1.19,4.37-1.79,7.11-1.79s5.07.6,7.09,1.79c2.01,1.19,3.58,2.89,4.67,5.08s1.65,4.78,1.65,7.76-.55,5.61-1.65,7.82c-1.1,2.2-2.66,3.91-4.67,5.12-2.02,1.2-4.38,1.81-7.09,1.81Zm0-3.66c2.85,0,5.06-.97,6.64-2.9,1.59-1.94,2.38-4.65,2.38-8.14s-.79-6.2-2.36-8.13-3.79-2.88-6.66-2.88-5.05.96-6.64,2.88c-1.59,1.92-2.38,4.63-2.38,8.13s.79,6.2,2.38,8.14c1.58,1.94,3.79,2.9,6.64,2.9Z"></path>
      <path class="cls-1" d="m739.32,264.33v-28.64h18.2v3.41h-13.98v9.14h13.12v3.41h-13.12v12.68h-4.23Z"></path>
      <path class="cls-1" d="m773.69,264.33l12.76-28.64h3.5l12.8,28.64h-4.31l-3-6.99h-14.5l-2.97,6.99h-4.27Zm14.47-23.97l-5.73,13.57h11.58l-5.77-13.57h-.08Z"></path>
      <path class="cls-1" d="m808.51,264.33v-28.64h11.86c3.09,0,5.47.77,7.15,2.3,1.67,1.53,2.52,3.67,2.52,6.44s-.84,4.95-2.52,6.48c-1.68,1.53-4.06,2.3-7.15,2.3h-7.64v11.13h-4.23Zm4.23-14.5h7.03c4.11,0,6.18-1.8,6.18-5.41s-2.06-5.36-6.18-5.36h-7.03v10.77Z"></path>
      <path class="cls-1" d="m836.62,264.33v-28.64h11.86c3.09,0,5.47.77,7.15,2.3,1.67,1.53,2.52,3.67,2.52,6.44s-.84,4.95-2.52,6.48c-1.68,1.53-4.06,2.3-7.15,2.3h-7.64v11.13h-4.23Zm4.23-14.5h7.03c4.11,0,6.18-1.8,6.18-5.41s-2.06-5.36-6.18-5.36h-7.03v10.77Z"></path>
      <path class="cls-1" d="m864.73,264.33v-28.64h4.23v25.02h14.18v3.62h-18.41Z"></path>
      <path class="cls-1" d="m889.18,264.33v-28.64h4.23v28.64h-4.23Z"></path>
      <path class="cls-1" d="m902.06,264.33v-28.64h18.53v3.41h-14.47v8.98h13.61v3.41h-13.61v9.43h14.47v3.41h-18.53Z"></path>
      <path class="cls-1" d="m928.02,264.33v-28.64h10.12c4.71,0,8.35,1.24,10.9,3.7,2.57,2.47,3.84,6,3.84,10.61s-1.28,8.14-3.84,10.62c-2.56,2.48-6.19,3.72-10.9,3.72h-10.12Zm4.23-3.53h5.65c7.07,0,10.61-3.6,10.61-10.8s-3.53-10.77-10.61-10.77h-5.65v21.57Z"></path>
      <path class="cls-1" d="m982.82,264.7c-2.25,0-4.3-.29-6.17-.88-1.87-.58-3.46-1.4-4.76-2.46l1.34-3.33c1.35,1.03,2.8,1.8,4.35,2.32,1.54.51,3.29.77,5.24.77,2.3,0,4.01-.42,5.1-1.24,1.1-.83,1.65-1.91,1.65-3.24,0-1.08-.4-1.94-1.18-2.58-.78-.64-2.1-1.14-3.94-1.52l-4.35-.9c-2.57-.54-4.49-1.43-5.75-2.68s-1.89-2.93-1.89-5.04c0-1.7.46-3.21,1.36-4.51s2.18-2.31,3.8-3.02c1.62-.72,3.49-1.08,5.6-1.08,1.95,0,3.76.3,5.42.88,1.67.58,3.08,1.43,4.25,2.54l-1.38,3.21c-2.3-2.03-5.08-3.05-8.33-3.05-2.01,0-3.6.45-4.77,1.34-1.18.9-1.77,2.08-1.77,3.58,0,1.14.36,2.04,1.1,2.72.73.68,1.95,1.19,3.65,1.55l4.3.89c2.71.57,4.73,1.44,6.06,2.62,1.33,1.17,1.99,2.77,1.99,4.77,0,1.68-.45,3.14-1.34,4.39s-2.16,2.21-3.78,2.9-3.56,1.04-5.81,1.04Z"></path>
      <path class="cls-1" d="m1013.41,264.7c-2.9,0-5.38-.6-7.43-1.79-2.06-1.19-3.64-2.89-4.73-5.1-1.1-2.2-1.65-4.81-1.65-7.82s.55-5.61,1.65-7.8,2.68-3.89,4.73-5.08c2.06-1.19,4.54-1.79,7.43-1.79,1.95,0,3.77.31,5.46.92,1.7.61,3.11,1.48,4.25,2.62l-1.46,3.37c-1.24-1.11-2.52-1.92-3.84-2.42s-2.74-.76-4.29-.76c-3.09,0-5.44.95-7.07,2.85s-2.44,4.59-2.44,8.08.81,6.19,2.44,8.11c1.63,1.91,3.98,2.86,7.07,2.86,1.55,0,2.98-.25,4.29-.75,1.31-.5,2.59-1.31,3.84-2.42l1.46,3.38c-1.14,1.11-2.55,1.97-4.25,2.6-1.69.62-3.51.93-5.46.93Z"></path>
      <path class="cls-1" d="m1030.06,264.33v-28.64h4.23v28.64h-4.23Z"></path>
      <path class="cls-1" d="m1042.94,264.33v-28.64h18.53v3.41h-14.47v8.98h13.61v3.41h-13.61v9.43h14.47v3.41h-18.53Z"></path>
      <path class="cls-1" d="m1068.9,264.33v-28.64h3.22l16.41,21.65v-21.65h3.9v28.64h-3.13l-16.49-21.74v21.74h-3.9Z"></path>
      <path class="cls-1" d="m1113.96,264.7c-2.9,0-5.38-.6-7.43-1.79-2.06-1.19-3.64-2.89-4.73-5.1-1.1-2.2-1.65-4.81-1.65-7.82s.55-5.61,1.65-7.8,2.68-3.89,4.73-5.08c2.06-1.19,4.54-1.79,7.43-1.79,1.95,0,3.77.31,5.46.92,1.7.61,3.11,1.48,4.25,2.62l-1.46,3.37c-1.24-1.11-2.52-1.92-3.84-2.42s-2.74-.76-4.29-.76c-3.09,0-5.44.95-7.07,2.85s-2.44,4.59-2.44,8.08.81,6.19,2.44,8.11c1.63,1.91,3.98,2.86,7.07,2.86,1.55,0,2.98-.25,4.29-.75,1.31-.5,2.59-1.31,3.84-2.42l1.46,3.38c-1.14,1.11-2.55,1.97-4.25,2.6-1.69.62-3.51.93-5.46.93Z"></path>
      <path class="cls-1" d="m1130.6,264.33v-28.64h18.53v3.41h-14.47v8.98h13.61v3.41h-13.61v9.43h14.47v3.41h-18.53Z"></path>
      <path class="cls-1" d="m1165.7,264.7c-2.25,0-4.3-.29-6.17-.88-1.87-.58-3.46-1.4-4.76-2.46l1.34-3.33c1.35,1.03,2.8,1.8,4.35,2.32,1.54.51,3.29.77,5.24.77,2.3,0,4.01-.42,5.1-1.24,1.1-.83,1.65-1.91,1.65-3.24,0-1.08-.4-1.94-1.18-2.58-.78-.64-2.1-1.14-3.94-1.52l-4.35-.9c-2.57-.54-4.49-1.43-5.75-2.68s-1.89-2.93-1.89-5.04c0-1.7.46-3.21,1.36-4.51s2.18-2.31,3.8-3.02c1.62-.72,3.49-1.08,5.6-1.08,1.95,0,3.76.3,5.42.88,1.67.58,3.08,1.43,4.25,2.54l-1.38,3.21c-2.3-2.03-5.08-3.05-8.33-3.05-2.01,0-3.6.45-4.77,1.34-1.18.9-1.77,2.08-1.77,3.58,0,1.14.36,2.04,1.1,2.72.73.68,1.95,1.19,3.65,1.55l4.3.89c2.71.57,4.73,1.44,6.06,2.62,1.33,1.17,1.99,2.77,1.99,4.77,0,1.68-.45,3.14-1.34,4.39s-2.16,2.21-3.78,2.9-3.56,1.04-5.81,1.04Z"></path>
    </g>
  </g>
</svg>
